<svg width="34" height="34" viewBox="0 0 34 34" fill="none" xmlns="http://www.w3.org/2000/svg">
<g clip-path="url(#clip0_2387_1127)">
<path d="M6.91304 0.184734C6.7271 0.277493 6.55444 0.429878 6.43491 0.628643L6.24233 0.926788V2.53678C6.24233 3.82211 6.26226 4.19314 6.3353 4.3389C6.44155 4.53767 6.86655 4.94182 6.9728 4.94182C7.01265 4.94182 7.03921 5.39898 7.03921 6.09465C7.03921 7.2011 7.03257 7.26073 6.89311 7.41312C6.80679 7.50587 6.14272 8.07566 5.41226 8.68521C3.91147 9.93742 3.60601 10.2422 3.3271 10.8054C2.9021 11.6402 2.92202 11.1698 2.92202 20.3924C2.92202 28.7074 2.92202 28.7935 3.05483 28.926C3.25405 29.1248 3.60601 29.1049 3.77866 28.8862C3.90483 28.7272 3.91812 28.6212 3.91812 27.8924V27.0709H10.6251H17.3388L17.3189 29.6813C17.299 32.2056 17.2923 32.305 17.1595 32.4772C17.0865 32.5766 16.9404 32.7224 16.8408 32.7953C16.6615 32.9344 16.615 32.9344 10.6251 32.9344C4.6353 32.9344 4.58882 32.9344 4.40952 32.7953C4.00444 32.4971 3.95132 32.358 3.91147 31.4901C3.89155 31.0461 3.85171 30.6354 3.82515 30.5691C3.75874 30.4234 3.42671 30.2975 3.25405 30.3505C2.96187 30.4432 2.90874 30.642 2.9353 31.5894C2.95522 32.3845 2.97515 32.5037 3.13452 32.8019C3.3603 33.2325 3.80522 33.6433 4.22358 33.8023C4.53569 33.9216 4.80796 33.9282 10.6251 33.9282C16.4423 33.9282 16.7146 33.9216 17.0267 33.8023C17.4451 33.6433 17.89 33.2325 18.1158 32.8019L18.2951 32.4706L18.315 27.2961L18.3283 22.1283L18.8927 22.1548C20.0349 22.2144 21.363 21.9428 22.4853 21.4127C25.3009 20.081 27.0275 17.3712 27.0275 14.2771C27.0275 12.9719 26.7486 11.8456 26.1244 10.6397L25.7658 9.95067L26.5095 9.19537C27.1537 8.5527 27.2666 8.46657 27.3263 8.55932C27.4923 8.84422 27.9505 9.27487 28.256 9.43388C28.7009 9.65915 29.4314 9.67903 29.8896 9.47364C30.5869 9.14899 31.0119 8.54607 31.0583 7.79077C31.0716 7.55225 31.0318 6.3928 30.9587 5.20684C30.8458 3.29208 30.8126 3.01381 30.6865 2.77529C30.5072 2.41752 30.1884 2.179 29.7767 2.09287C29.458 2.03324 25.965 1.82122 25.2279 1.82785C24.6501 1.82785 24.2583 1.99349 23.84 2.41752C23.0498 3.20595 23.0365 4.3389 23.7935 5.10083C23.9861 5.29297 24.2052 5.49173 24.2916 5.54474C24.4376 5.63749 24.431 5.65074 23.6208 6.45905L22.7974 7.27398L22.2064 7.04209C19.8556 6.1079 17.299 6.26029 15.247 7.4595C14.7357 7.75764 14.6361 7.75764 14.3771 7.45287C14.2111 7.25411 14.2111 7.23423 14.2111 6.09465C14.2111 5.39898 14.2376 4.94182 14.2775 4.94182C14.397 4.94182 14.8287 4.51116 14.915 4.29915C14.988 4.14014 15.008 3.68298 15.008 2.50365V0.926788L14.8154 0.622017C14.6892 0.423252 14.5232 0.277493 14.3306 0.178112C14.0384 0.0389748 13.9787 0.0389748 10.6185 0.0389748C7.25171 0.0389748 7.19858 0.0389748 6.91304 0.184734ZM13.9322 1.1123C14.0451 1.22493 14.0451 3.88837 13.9322 4.001C13.8193 4.11364 7.43101 4.11364 7.31811 4.001C7.20522 3.88837 7.20522 1.22493 7.31811 1.1123C7.43101 0.999668 13.8193 0.999668 13.9322 1.1123ZM28.1431 2.96081C29.0794 3.01381 29.6638 3.07344 29.7369 3.12644C29.8298 3.1927 29.863 3.5306 29.9759 5.51823C30.0955 7.73114 30.0955 7.83715 29.9826 8.07566C29.6572 8.76471 28.7341 8.83097 28.3091 8.20155C28.2228 8.06241 28.1431 7.81727 28.1166 7.57213C28.0833 7.28061 28.0302 7.12822 27.9173 7.01559C27.738 6.8367 27.6185 6.82345 27.3728 6.95596C27.1537 7.07522 24.7498 9.48689 24.6435 9.6989C24.5373 9.89767 24.5904 10.0302 24.9689 10.6132C25.3341 11.1764 25.6529 11.8919 25.8455 12.6141C26.0181 13.27 26.0779 14.6282 25.965 15.3305C25.5267 18.0602 23.5146 20.2798 20.8583 20.9489C20.1876 21.1212 18.9857 21.2272 18.574 21.1477L18.3283 21.1013V20.1473V19.1932L18.8462 19.2329C20.1013 19.3257 21.5556 18.8222 22.4654 17.9807C22.8173 17.6495 22.8638 17.4573 22.638 17.1724C22.4255 16.9008 22.1732 16.9405 21.6818 17.3314C20.7919 18.0404 19.6896 18.3584 18.6337 18.2192L18.3283 18.1729V15.0854C18.3283 11.7594 18.315 11.5872 17.9697 10.8849L17.8169 10.5735L18.1888 10.4608C18.4212 10.3946 18.7998 10.3548 19.1916 10.3548C20.7056 10.3614 22.047 11.2095 22.7044 12.581C23.1228 13.4423 23.1693 13.9392 23.0033 15.4101C22.9701 15.7281 22.9833 15.7943 23.1029 15.9003C23.2822 16.066 23.6142 16.066 23.7802 15.9003C23.9927 15.6883 24.1255 14.8933 24.0857 14.0518C24.0525 13.2303 23.8333 12.4617 23.4349 11.7793C23.0697 11.1698 22.1068 10.2554 21.4826 9.93079C20.2341 9.28812 18.8662 9.17549 17.5712 9.60615L17.113 9.75853L16.3626 9.12911C15.9443 8.77796 15.6056 8.46657 15.6056 8.44006C15.6056 8.34068 16.7876 7.81064 17.3255 7.66488C18.906 7.2276 20.5794 7.37999 22.1068 8.09554C22.4455 8.25455 22.8041 8.38706 22.9037 8.38706C23.0431 8.38706 23.3751 8.08891 24.5306 6.93608C25.7923 5.67725 25.9849 5.45198 25.9849 5.27972C25.9849 4.95507 25.8123 4.82256 25.3275 4.77618C24.8228 4.71655 24.524 4.54429 24.358 4.21302C24.1322 3.76249 24.2716 3.25895 24.7033 2.96743C24.9623 2.78854 24.949 2.78854 28.1431 2.96081ZM13.215 6.19403C13.215 7.33361 13.2548 7.59863 13.4939 7.94315C13.5669 8.04254 14.2576 8.6587 15.0279 9.308C16.6216 10.6397 16.8806 10.9047 17.1263 11.4281C17.2923 11.7793 17.299 11.8588 17.3189 13.0713L17.3455 14.35H10.6251H3.90483L3.9314 13.0713C3.9646 11.1963 3.95132 11.2095 6.22241 9.308C6.99272 8.6587 7.68335 8.04254 7.7564 7.94315C7.99546 7.59863 8.0353 7.33361 8.0353 6.19403V5.07433H10.6251H13.215V6.19403ZM17.3322 20.7104V26.077H10.6251H3.91812V20.7104V15.3438H10.6251H17.3322V20.7104Z" fill="#F08080"/>
</g>
<defs>
<clipPath id="clip0_2387_1127">
<rect width="34" height="33.9224" fill="white" transform="translate(0 0.0385742)"/>
</clipPath>
</defs>
</svg>
