<svg width="20" height="20" viewBox="0 0 20 20" fill="none" xmlns="http://www.w3.org/2000/svg">
<path d="M7.22656 11.9412C7.22656 13.0162 8.05156 13.8829 9.07656 13.8829H11.1682C12.0599 13.8829 12.7849 13.1245 12.7849 12.1912C12.7849 11.1745 12.3432 10.8162 11.6849 10.5829L8.32656 9.41621C7.66823 9.18288 7.22656 8.82454 7.22656 7.80788C7.22656 6.87454 7.95156 6.11621 8.84323 6.11621H10.9349C11.9599 6.11621 12.7849 6.98288 12.7849 8.05788" stroke="black" stroke-width="1.25" stroke-linecap="round" stroke-linejoin="round"/>
<path d="M10 5V15" stroke="black" stroke-width="1.25" stroke-linecap="round" stroke-linejoin="round"/>
<path d="M9.99935 18.3337C14.6017 18.3337 18.3327 14.6027 18.3327 10.0003C18.3327 5.39795 14.6017 1.66699 9.99935 1.66699C5.39698 1.66699 1.66602 5.39795 1.66602 10.0003C1.66602 14.6027 5.39698 18.3337 9.99935 18.3337Z" stroke="black" stroke-width="1.25" stroke-linecap="round" stroke-linejoin="round"/>
</svg>
