<svg width="34" height="34" viewBox="0 0 34 34" fill="none" xmlns="http://www.w3.org/2000/svg">
<path d="M15.9719 0.0394402C12.9304 0.2453 10.1148 1.19491 7.61794 2.85507C1.89373 6.66015 -0.948463 13.3871 0.299975 20.1606C1.2363 25.2141 4.53005 29.67 9.10544 32.0672C10.8719 32.9903 12.864 33.6278 14.7433 33.8602C16.0316 34.0129 15.9785 34.0196 16.1777 33.8469C16.3105 33.734 16.357 33.6278 16.357 33.4684C16.357 33.1696 16.1578 33.0235 15.6863 32.9703C14.1789 32.811 13.1695 32.5918 11.8746 32.1602C7.89685 30.8387 4.51677 27.877 2.65076 24.0852C0.260131 19.2043 0.485912 13.427 3.25505 8.83164C4.17146 7.30429 5.67888 5.56445 6.96716 4.55507C8.77341 3.12733 10.8851 2.07147 13.0168 1.52694C15.5734 0.869518 18.4687 0.869518 21.0121 1.52694C26.225 2.86835 30.5082 6.87265 32.175 11.966C32.766 13.7723 32.9719 15.0672 32.9652 17.066C32.9652 19.0848 32.6797 20.7449 32.0422 22.4781C31.5043 23.9524 30.3754 25.9578 29.4722 27.0469C26.7496 30.334 23.1371 32.3594 19.0929 32.8707C18.7676 32.9172 18.4156 32.977 18.316 33.0168C18.0902 33.1032 17.9707 33.3821 18.057 33.6211C18.1765 33.92 18.3758 33.9731 19.1461 33.8735C24.691 33.1828 29.5785 29.7496 32.1418 24.736C33.782 21.5285 34.3597 17.7633 33.7621 14.1774C32.5469 6.88593 26.5836 1.12851 19.2523 0.172253C18.4621 0.0660019 16.6558 -0.00704575 15.9719 0.0394402Z" fill="black"/>
<path d="M16.1045 3.26C14.1389 3.58539 12.751 5.05961 12.751 6.82602V7.33071L12.3924 7.70258C11.735 8.37993 11.3564 8.90454 11.3564 9.1436C11.3564 9.42915 11.5557 9.62837 11.8479 9.62837C12.0471 9.62837 12.1135 9.5686 12.5518 9.03071L13.0299 8.42641L13.2689 8.77836C13.5744 9.20337 14.026 9.56196 14.2717 9.56196C14.5107 9.56196 14.7432 9.30962 14.7432 9.05063C14.7432 8.88462 14.6834 8.79165 14.451 8.60571C14.2916 8.4729 14.0924 8.23383 14.0061 8.06782C13.8533 7.77563 13.8533 7.76899 13.9795 7.67602C14.2385 7.4768 15.115 7.0518 15.4736 6.94555C16.0779 6.76625 16.7154 6.70649 17.3197 6.78617C17.851 6.84594 17.8842 6.84594 18.0369 6.69985C18.2428 6.50727 18.2494 6.1686 18.0502 5.97602C17.9705 5.90297 17.8709 5.8432 17.8377 5.83656C17.7979 5.83656 17.5588 5.81 17.2998 5.78344C16.3502 5.67055 15.0088 5.94281 14.099 6.44086C13.7736 6.61352 13.7471 6.62016 13.7471 6.50063C13.7471 6.43422 13.8068 6.22836 13.8732 6.04242C14.5107 4.36898 16.7885 3.69828 18.6545 4.64789C19.4713 5.05961 20.2814 5.8432 20.7729 6.70649C21.0584 7.19789 21.417 8.02133 21.3705 8.06782C21.3572 8.0811 21.2244 8.06782 21.0783 8.02133C20.7064 7.92172 19.79 8.00141 19.126 8.19399C18.3955 8.40649 17.3463 8.84477 17.1537 9.01743C16.9678 9.18344 16.9545 9.49555 17.1205 9.64829C17.3662 9.86743 17.5455 9.84751 18.4221 9.49555C20.0424 8.83813 20.9521 8.80493 21.6826 9.3561C22.0014 9.6018 22.3201 9.62173 22.5193 9.42251C22.6455 9.29633 22.6588 9.22993 22.6256 8.8979C22.5725 8.43305 22.2006 7.27094 21.915 6.69985C21.6162 6.10883 21.1646 5.44477 20.7729 5.00648C19.551 3.67172 17.7182 2.98773 16.1045 3.26Z" fill="black"/>
<path d="M12.1734 12.3643C11.2902 12.464 10.4734 13.0682 10.0484 13.9315L9.79602 14.4362L9.7761 16.8534C9.75617 19.1245 9.76282 19.3038 9.88899 19.7155C10.1413 20.5456 10.8452 21.2827 11.6421 21.5616C12.107 21.721 13.0632 21.721 13.528 21.5616C14.3183 21.2827 15.0222 20.5456 15.2745 19.7354C15.3941 19.3436 15.4073 19.1179 15.4073 17.0393C15.4073 14.6487 15.3808 14.4097 15.082 13.8253C14.7964 13.2675 14.1855 12.7229 13.6011 12.5104C13.2027 12.3643 12.6581 12.3046 12.1734 12.3643ZM13.5148 13.5796C13.8866 13.7921 14.1855 14.1573 14.3116 14.5491C14.4046 14.8147 14.4179 15.2198 14.398 17.1456C14.378 19.337 14.3714 19.4366 14.232 19.689C14.0659 20.0077 13.6741 20.3929 13.3488 20.5589C13.0034 20.7448 12.1468 20.7315 11.7816 20.539C11.3964 20.3331 11.0976 20.021 10.9183 19.6226C10.7655 19.2972 10.7589 19.2573 10.7589 17.0593C10.7589 14.6089 10.7788 14.4561 11.164 13.9913C11.7218 13.314 12.7577 13.1347 13.5148 13.5796Z" fill="black"/>
<path d="M18.4287 12.3577C17.5389 12.4639 16.6889 13.0815 16.2639 13.9315L16.0381 14.3764V16.9995V19.6225L16.224 20.0143C16.9146 21.5018 18.5814 22.1194 20.0357 21.4354C20.4408 21.2428 21.0518 20.6717 21.2709 20.2733C21.6162 19.6358 21.6494 19.3502 21.6494 17.0592C21.6494 15.9038 21.6162 14.7948 21.583 14.6022C21.3107 13.1612 19.9361 12.185 18.4287 12.3577ZM19.6041 13.4866C19.9428 13.6659 20.235 13.9514 20.4275 14.2901L20.6201 14.642L20.64 16.8534C20.6666 19.4963 20.6467 19.6026 20.1021 20.1538C19.6705 20.5788 19.2256 20.7514 18.6611 20.6983C18.0037 20.6385 17.4525 20.2733 17.1736 19.7088L17.001 19.3635V17.0393C17.001 14.8413 17.0143 14.6885 17.1404 14.4096C17.3994 13.8385 17.9174 13.4467 18.5217 13.3538C18.867 13.3006 19.3717 13.367 19.6041 13.4866Z" fill="black"/>
<path d="M6.15 12.6235C5.91094 12.8095 5.91094 13.1548 6.15 13.3407C6.30273 13.4602 6.42227 13.4802 7.01328 13.4802H7.70391V17.3583C7.70391 21.0239 7.71055 21.2431 7.82344 21.3892C8.00273 21.6083 8.34141 21.5884 8.54727 21.356L8.7 21.17L8.68672 16.9532L8.6668 12.7364L8.50742 12.6102C8.36797 12.4974 8.2418 12.4841 7.33867 12.4841C6.41562 12.4841 6.30937 12.4974 6.15 12.6235Z" fill="black"/>
<path d="M23.0776 12.8624C22.7589 13.0284 22.5729 13.2276 22.4069 13.5796C22.1346 14.1573 22.221 14.7948 22.6327 15.2796C22.9249 15.6183 23.1971 15.7378 23.662 15.7378C24.8971 15.7378 25.4483 13.9979 24.4987 13.1015C24.3725 12.9886 24.1866 12.8558 24.087 12.8226C23.8147 12.7163 23.31 12.7362 23.0776 12.8624ZM23.8678 13.8917C24.0073 14.0843 24.0007 14.4694 23.8612 14.6222C23.7151 14.7882 23.4694 14.7749 23.3499 14.5956C23.1241 14.2769 23.2901 13.7456 23.6089 13.7456C23.6952 13.7456 23.8147 13.812 23.8678 13.8917Z" fill="black"/>
<path d="M26.3975 12.8826C26.2646 13.0287 23.0439 20.6721 23.0439 20.8447C23.0439 20.9975 23.2963 21.2299 23.5154 21.283C23.6283 21.3096 23.7279 21.283 23.8275 21.2033C23.9803 21.0771 27.2275 13.4471 27.2275 13.2146C27.2275 13.1549 27.1678 13.0221 27.0881 12.9224C26.9221 12.7099 26.5768 12.6834 26.3975 12.8826Z" fill="black"/>
<path d="M26.2779 18.3277C25.7201 18.5004 25.3018 19.1312 25.3018 19.7886C25.3018 20.2468 25.5342 20.7715 25.8463 21.0039C26.5436 21.5418 27.4467 21.316 27.8518 20.5058C28.3232 19.5562 27.7654 18.3808 26.7959 18.2945C26.61 18.2812 26.3775 18.2945 26.2779 18.3277ZM26.8955 19.3902C27.1611 19.6558 26.9951 20.3199 26.6631 20.3199C26.4705 20.3199 26.2979 20.0675 26.2979 19.7886C26.2979 19.5097 26.4705 19.2574 26.6631 19.2574C26.7162 19.2574 26.8225 19.3172 26.8955 19.3902Z" fill="black"/>
<path d="M17.1012 24.0054C16.882 24.0519 16.3707 24.2179 15.9723 24.3707C14.2391 25.0347 14.1461 25.0613 13.5816 25.0613C13.0105 25.0546 12.6652 24.9417 12.227 24.6097C11.948 24.4039 11.7621 24.3906 11.5297 24.5765C11.3039 24.7558 11.3039 25.0281 11.5297 25.805C11.8949 27.08 12.4727 28.1757 13.2031 28.9593C14.3453 30.1878 15.607 30.7656 17.1676 30.7656C18.9008 30.7722 20.2156 30.0218 20.8863 28.6605C21.1984 28.0296 21.3645 27.2859 21.298 26.8609C21.2648 26.6683 21.3047 26.6085 21.6301 26.2898C22.2145 25.7187 22.6461 25.1144 22.6461 24.8687C22.6461 24.6296 22.5 24.4703 22.2344 24.4039C22.0285 24.3507 21.9223 24.4437 21.2914 25.1941L20.966 25.5859L20.8332 25.3933C20.023 24.2312 18.5488 23.6867 17.1012 24.0054ZM18.7348 25.0347C19.2727 25.2074 19.7309 25.5394 19.9633 25.9378L20.1492 26.2499L19.9832 26.3828C19.6977 26.6218 18.6418 27.08 18.1039 27.1929C17.6855 27.2859 17.4199 27.2992 16.7957 27.266C16.0387 27.2195 16.0187 27.2195 15.9125 27.3722C15.773 27.5714 15.7797 27.9101 15.9258 28.0429C16.2445 28.3285 17.732 28.355 18.6617 28.0894C18.934 28.0097 19.4121 27.8304 19.7176 27.6843L20.2687 27.4253L20.2289 27.6445C20.0895 28.3484 19.452 29.1386 18.748 29.464C16.9152 30.3074 14.6707 29.5238 13.3824 27.5847C13.1301 27.2062 12.5855 26.0441 12.6387 25.991C12.652 25.9777 12.8379 25.9976 13.057 26.0374C13.7742 26.1703 14.3852 26.0441 15.9059 25.4531C17.4066 24.8687 17.9578 24.789 18.7348 25.0347Z" fill="black"/>
</svg>
