<svg width="34" height="34" viewBox="0 0 34 34" fill="none" xmlns="http://www.w3.org/2000/svg">
<g clip-path="url(#clip0_2387_1149)">
<path d="M30.7591 3.41973C29.4708 3.68535 28.3287 3.9377 28.2158 3.98418C27.8572 4.13692 27.7044 4.70137 27.9302 5.04668C27.99 5.13965 28.2025 5.37871 28.3951 5.57793L28.7537 5.9498L28.2025 6.4877L27.658 7.03223L27.2927 6.7998C26.2435 6.12246 24.7494 5.54473 23.5408 5.34551C22.7771 5.21934 21.2497 5.19942 20.5525 5.31231C19.4302 5.4916 18.7263 5.71074 17.7236 6.18223L17.0197 6.5209L16.3955 6.21543C15.4126 5.7373 13.9849 5.32559 13.2212 5.29238C12.8693 5.2791 12.6833 5.44512 12.6833 5.77715C12.6833 6.11582 12.8294 6.22207 13.4138 6.31504C14.297 6.44785 16.0435 7.03223 15.9904 7.17168C15.9439 7.29785 15.1205 7.9752 15.054 7.94199C14.7419 7.80918 13.633 7.49707 13.281 7.43731C12.7298 7.35098 11.3751 7.35098 10.8439 7.43731C8.93139 7.74941 7.13842 8.83184 5.96967 10.3791C5.44506 11.0764 4.88725 12.2186 4.68139 13.0354C4.50209 13.7459 4.52201 13.9252 4.80756 14.1111C5.13959 14.3303 5.47162 14.0912 5.58451 13.5533C5.83686 12.3248 6.49428 11.1428 7.45053 10.2131C8.23412 9.44277 9.0974 8.95137 10.2728 8.58613C10.8107 8.42012 10.9501 8.40684 12.0193 8.40684C13.0486 8.4002 13.2412 8.42012 13.7326 8.55957C14.0314 8.6459 14.297 8.74551 14.3169 8.77871C14.3369 8.81191 14.297 8.90488 14.224 8.98457C13.9716 9.25684 13.3408 10.2928 13.0884 10.8439C12.7697 11.5279 12.4642 12.4775 12.3115 13.2479C12.1455 14.0779 12.1455 15.8775 12.3048 16.701C12.5837 18.1221 13.1283 19.4303 13.9185 20.5658L14.3435 21.1834L14.1642 21.2564C14.058 21.2963 13.6927 21.3893 13.3474 21.4623C12.5439 21.635 11.2025 21.6018 10.4189 21.3959C7.98842 20.7518 6.11576 18.7994 5.57787 16.3689C5.51147 16.0502 5.40522 15.7381 5.33881 15.665C5.1728 15.4857 4.84076 15.499 4.64819 15.7049C4.51537 15.851 4.50209 15.9107 4.54194 16.2361C4.6017 16.7408 4.94701 17.79 5.24584 18.3943C5.81694 19.5232 6.7599 20.5924 7.77592 21.2631C8.48647 21.7346 8.89155 21.9338 9.61537 22.1795C14.0646 23.667 18.7595 20.8646 19.5697 16.2361C19.7224 15.3596 19.656 13.9318 19.4302 13.0486C19.2177 12.2318 18.6068 10.9701 18.1021 10.3326L17.7435 9.87441L17.9228 9.72832C18.1021 9.57559 18.6333 9.23027 18.6865 9.23027C18.7529 9.23027 19.3372 10.0404 19.6095 10.5053C20.2404 11.5678 20.6388 12.7697 20.7849 14.0447C20.8447 14.6158 20.8779 14.7287 21.024 14.8549C21.2896 15.0939 21.5884 15.0342 21.7677 14.7021C21.8208 14.5959 21.8275 14.39 21.781 13.9717C21.5951 12.285 20.9841 10.6514 20.0478 9.34316L19.656 8.79863L19.8419 8.71895C20.6388 8.37363 22.538 8.28731 23.5208 8.55293C24.7759 8.89824 25.8583 9.52246 26.7017 10.4057C27.3193 11.0564 27.5583 11.4018 27.9236 12.1721C28.415 13.208 28.5212 13.726 28.5146 15.0408C28.5146 16.0635 28.4947 16.2229 28.3419 16.7342C28.2423 17.0463 28.1162 17.4115 28.063 17.5443L27.9568 17.7967H26.363C24.497 17.7967 24.5369 17.7834 24.3376 18.5271C24.0853 19.5033 23.4212 20.4994 22.6708 21.0439C21.8208 21.6482 21.874 21.6283 21.2564 21.5686C20.5658 21.5021 19.656 21.2631 19.656 21.1502C19.656 21.1037 19.7025 21.0307 19.749 20.9842C19.9283 20.8381 20.6587 19.6561 20.9177 19.1049C21.2033 18.474 21.5486 17.4381 21.615 16.9865C21.6548 16.7076 21.6415 16.6545 21.4955 16.5084C21.3958 16.4154 21.2497 16.3357 21.1634 16.3357C20.8712 16.3357 20.7251 16.535 20.5591 17.1658C20.1341 18.7662 19.4435 19.9482 18.2349 21.1568C16.6943 22.6975 15.0275 23.4877 12.8494 23.7068C11.6607 23.833 10.3326 23.6604 9.11733 23.2354C8.34037 22.9631 7.86889 22.7174 7.09858 22.2061C6.6935 21.9338 6.39467 21.7811 6.27514 21.7811C6.1224 21.7811 5.91655 21.9471 5.19936 22.6643C4.70795 23.1424 4.26303 23.6271 4.20326 23.7334C4.04389 24.0455 4.1435 24.3377 4.56186 24.776C4.91381 25.1412 4.92045 25.1611 4.77436 25.201C4.42905 25.2807 1.09545 25.958 1.08881 25.9447C1.06889 25.9314 1.78608 22.3123 1.83256 22.1861C1.85248 22.1264 1.9853 22.2127 2.24428 22.4584C2.68256 22.8768 2.92826 22.9631 3.2603 22.8236C3.38647 22.7705 3.88451 22.3256 4.36264 21.8342C5.4185 20.765 5.41186 20.785 4.87397 20.0213C4.1767 19.0186 3.69858 17.9295 3.44623 16.7143C3.24037 15.758 3.24037 14.1908 3.44623 13.2346C4.19662 9.68848 6.81967 7.09863 10.3857 6.36816C10.7576 6.29512 11.1095 6.18223 11.1693 6.1291C11.3287 5.98301 11.322 5.61113 11.156 5.44512C10.9833 5.27246 10.7044 5.2791 9.92748 5.44512C8.6392 5.73067 7.40405 6.2752 6.35483 7.01895C5.63764 7.53027 4.58178 8.58613 4.05717 9.32988C3.28686 10.4256 2.66928 11.9131 2.41694 13.2877C2.24428 14.224 2.25756 15.8244 2.4435 16.7674C2.69584 18.049 3.16069 19.2178 3.81147 20.2205L4.1103 20.6854L3.55248 21.2498L2.99467 21.8076L2.49662 21.3295C2.03842 20.8846 1.9853 20.8514 1.71303 20.8514C1.36772 20.8514 1.14858 20.9908 1.02905 21.2764C0.989202 21.3893 0.730217 22.5779 0.457952 23.9127C-0.0268138 26.3299 -0.0334544 26.3498 0.0794362 26.5889C0.152483 26.7416 0.285296 26.8744 0.431389 26.9408C0.663811 27.0537 0.703655 27.0471 3.10756 26.5689C4.44897 26.2967 5.64428 26.0311 5.76381 25.9779C6.0228 25.865 6.17553 25.5994 6.17553 25.2607C6.17553 25.0549 6.11576 24.9553 5.6974 24.5303L5.21928 24.0322L5.77709 23.4744L6.3349 22.9166L6.53412 23.0494C7.55014 23.7135 8.55951 24.1584 9.66186 24.4373C11.9462 25.015 14.297 24.7627 16.4486 23.7002L16.9865 23.4346L17.5111 23.7002C18.6665 24.2779 20.0677 24.6432 21.4556 24.7361L22.1595 24.7826L22.3787 25.3604C23.0029 27.0139 24.0654 28.4814 25.4201 29.5439C26.0044 30.0021 27.5716 30.9982 27.8107 31.058C27.9833 31.0979 29.2451 30.3674 30.0818 29.7365C32.3662 28.0166 33.8005 25.3338 33.9798 22.465C34.0263 21.6748 34.0462 21.708 33.3622 21.2498C32.4193 20.6123 31.7154 19.6162 31.4099 18.5006C31.2705 18.0092 31.2705 17.9561 31.3701 17.6041C31.6755 16.4818 31.7951 15.1404 31.6822 14.0779C31.5626 12.9889 31.4697 12.8162 31.0247 12.8162C30.799 12.8162 30.5997 13.0088 30.5931 13.2279C30.5931 13.3143 30.6263 13.726 30.6728 14.1377C30.7923 15.1869 30.6794 16.4354 30.3806 17.4514L30.2744 17.7967H29.6568H29.0326L29.1587 17.4713C29.2251 17.292 29.3447 16.8338 29.4244 16.4553C29.5439 15.8775 29.5572 15.6186 29.5306 14.7752C29.4841 13.301 29.1521 12.1654 28.4283 10.9834C26.1638 7.32442 21.2962 6.26855 17.697 8.66582C14.0513 11.0896 13.2412 16.1631 15.9372 19.6826L16.2626 20.1076L15.8044 20.4264C15.3462 20.7385 15.3396 20.7385 15.2001 20.6123C15.1205 20.5459 14.8681 20.2006 14.6357 19.8553C12.9091 17.2521 12.6833 13.9982 14.038 11.1893C14.5029 10.2264 15.0806 9.42949 15.8708 8.67246C16.8869 7.70293 17.8697 7.09863 19.1447 6.67363C20.1142 6.34824 20.858 6.23535 21.947 6.23535C23.813 6.23535 25.3669 6.71348 26.9275 7.7627C27.3259 8.03496 27.5915 8.16777 27.7244 8.16777C27.897 8.16777 28.0697 8.02168 28.8665 7.21816C29.3779 6.7002 29.8228 6.20879 29.8494 6.12246C29.929 5.85019 29.8095 5.57793 29.4376 5.17949C29.2384 4.96035 29.079 4.78106 29.0923 4.78106C29.1056 4.78106 29.9822 4.60176 31.0314 4.38926C32.8908 4.01074 32.9439 4.0041 32.9107 4.14355C32.8908 4.2166 32.7247 5.04668 32.5388 5.97637C32.3529 6.90606 32.1869 7.70957 32.1669 7.7627C32.147 7.81582 32.0076 7.72949 31.7486 7.48379C31.038 6.82637 30.8654 6.87949 29.6634 8.08809C28.9263 8.83848 28.7537 9.04434 28.7537 9.19707C28.7537 9.3166 28.9064 9.61543 29.1787 10.0205C29.4111 10.3725 29.6701 10.7908 29.7497 10.9568C30.0353 11.5279 30.3208 11.6873 30.6595 11.4549C30.9849 11.2291 30.8919 10.8771 30.2212 9.79473L29.8892 9.26348L30.4337 8.71895L30.9716 8.17442L31.3833 8.57285C31.9146 9.07754 32.1736 9.19043 32.5122 9.07754C32.6451 9.0377 32.8111 8.9248 32.8841 8.83184C32.9638 8.71895 33.1697 7.84902 33.515 6.1291L34.033 3.59238L33.9068 3.35996C33.7806 3.12754 33.4486 2.91504 33.2228 2.92832C33.1564 2.93496 32.0474 3.1541 30.7591 3.41973ZM17.9095 11.8799C18.4341 12.8627 18.6599 13.8123 18.6599 14.9744C18.6599 15.8443 18.547 16.4885 18.2548 17.2986C18.0423 17.8764 17.5576 18.7264 17.1857 19.1514L16.9665 19.4037L16.6544 18.9854C15.7845 17.8166 15.3396 16.4686 15.3396 14.9943C15.3396 13.4604 15.8244 12.0525 16.7408 10.8971L17.013 10.5518L17.3251 10.9568C17.5044 11.1826 17.7634 11.5943 17.9095 11.8799ZM30.4802 18.899C30.4802 19.085 30.8787 19.9748 31.1576 20.3998C31.4962 20.9244 32.2599 21.7146 32.6915 21.9936L33.0169 22.1994L32.9705 22.6709C32.6915 25.5729 31.1244 28.01 28.5345 29.5771L27.8837 29.9756L27.6712 29.8494C25.8318 28.8068 24.5435 27.5252 23.7267 25.9248C23.1955 24.8822 22.7771 23.3748 22.7771 22.4717C22.7771 22.2193 22.8037 22.1861 23.1955 21.9006C24.1251 21.21 24.8423 20.2271 25.1943 19.1381L25.3138 18.7928H27.897C30.2013 18.7928 30.4802 18.8061 30.4802 18.899ZM19.5497 22.2193C20.081 22.4053 20.9509 22.5779 21.3427 22.5779C21.4888 22.5779 21.6482 22.6045 21.688 22.6311C21.7544 22.6709 21.9138 23.4479 21.9138 23.7068C21.9138 23.76 21.781 23.7732 21.4689 23.74C20.1673 23.6205 19.3439 23.4213 18.4341 23.0229L17.9294 22.7971L18.4076 22.392C18.713 22.133 18.9322 21.9936 18.9919 22.0201C19.0451 22.04 19.2974 22.133 19.5497 22.2193Z" fill="#F08080"/>
<path d="M30.1353 21.5887C30.0689 21.6219 29.4314 22.4121 28.7142 23.3418C27.4126 25.0219 27.3993 25.0352 27.2665 24.9156C26.3767 24.1387 25.9915 23.8199 25.8587 23.7602C25.5134 23.6008 25.0884 24.0059 25.2212 24.3645C25.2478 24.4508 25.7259 24.9023 26.2704 25.3738C27.0739 26.0711 27.2997 26.2305 27.4657 26.2305C27.572 26.2305 27.7114 26.1906 27.7712 26.1441C27.8243 26.1043 28.5482 25.1879 29.3782 24.1187C30.4075 22.784 30.879 22.1199 30.879 22.007C30.879 21.6617 30.4341 21.4094 30.1353 21.5887Z" fill="#F08080"/>
</g>
<defs>
<clipPath id="clip0_2387_1149">
<rect width="34" height="34" fill="white"/>
</clipPath>
</defs>
</svg>
