<svg width="34" height="34" viewBox="0 0 34 34" fill="none" xmlns="http://www.w3.org/2000/svg">
<g clip-path="url(#clip0_2387_1105)">
<path d="M25.2297 0.179249C24.6188 0.491356 24.2867 1.17534 24.4328 1.81284C24.5125 2.15152 24.798 2.57652 25.0438 2.70933C25.15 2.77574 25.2363 2.8355 25.2363 2.85542C25.2363 2.87535 24.5523 3.57261 23.7156 4.40933L22.1949 5.93004L21.6039 5.5316C20.1629 4.54879 18.682 3.96441 16.9754 3.71871C16.298 3.6191 14.7176 3.6191 14.0402 3.71871C12.5926 3.93121 10.9258 4.53551 9.87656 5.23277C9.69063 5.35894 9.59766 5.38551 9.58438 5.33238C9.56445 5.2859 9.48477 5.1066 9.39844 4.94058C9.23906 4.62847 9.23906 4.62847 9.37188 4.46246C9.75039 3.97769 9.11289 3.36675 8.66797 3.78511C8.52187 3.92457 8.52187 3.92457 8.29609 3.79839C8.16992 3.72535 7.95742 3.63238 7.82461 3.58589C7.61875 3.52613 7.57227 3.473 7.53242 3.28707C7.4793 3.00152 7.29336 2.8355 7.04102 2.8355C6.78867 2.8355 6.60273 3.00152 6.54961 3.28707C6.50977 3.473 6.46328 3.52613 6.25742 3.58589C6.12461 3.63238 5.91211 3.72535 5.78594 3.79839C5.56016 3.92457 5.56016 3.92457 5.41406 3.78511C5.22148 3.60582 4.90938 3.61246 4.73008 3.80503C4.55078 3.99761 4.54414 4.24996 4.7168 4.4691C4.84961 4.63511 4.84961 4.64175 4.72344 4.8609C4.65703 4.98043 4.56406 5.18629 4.52422 5.3191C4.46445 5.51168 4.40469 5.57144 4.23867 5.60465C3.92656 5.66441 3.78711 5.82379 3.78711 6.10933C3.78711 6.40152 3.94648 6.57418 4.23203 6.57418C4.41133 6.57418 4.43789 6.60738 4.51094 6.85309C4.55742 7.01246 4.65039 7.23824 4.72344 7.35777C4.84961 7.57692 4.84961 7.58356 4.7168 7.74957C4.5375 7.97535 4.55078 8.24098 4.73672 8.42028C4.9293 8.59957 5.18164 8.60621 5.39414 8.4402C5.56016 8.30738 5.56016 8.30738 5.88555 8.46676C6.06484 8.55973 6.25078 8.63278 6.29727 8.63278C6.33711 8.63278 6.37695 8.64606 6.37695 8.66598C6.37695 8.6859 6.18438 9.09762 5.95195 9.58239C5.16836 11.1961 4.92266 12.1789 4.86953 13.9121C4.82969 15.2269 4.89609 15.9176 5.14844 16.9336C6.15117 20.918 9.425 24.0191 13.4426 24.8094L14.0137 24.9223V26.6422V28.3555H13.6086C13.3828 28.3555 13.084 28.3887 12.9445 28.4285C12.0613 28.6941 11.643 29.8031 12.1277 30.5934C12.4531 31.118 12.898 31.3437 13.6219 31.3437H14.0004L14.027 32.1207C14.0469 32.7648 14.0801 32.9508 14.1996 33.1832C14.6578 34.0531 15.7668 34.2656 16.484 33.6148C16.909 33.2297 17.002 32.9641 17.002 32.0875V31.3437H17.407C18.0047 31.3437 18.3168 31.2242 18.6754 30.8723C19.2531 30.2945 19.2863 29.4711 18.7418 28.8734C18.4031 28.4949 18.0711 28.3555 17.4867 28.3555H17.002V27.9039C17.002 27.5121 16.982 27.4258 16.8492 27.3062C16.6434 27.1137 16.3711 27.1203 16.1652 27.3262C15.9992 27.4922 15.9926 27.5187 16.0191 28.2957C16.0457 29.3449 16.0523 29.3516 17.0816 29.3516C17.759 29.3516 17.8121 29.3582 17.9648 29.5176C18.1773 29.7234 18.1773 29.9758 17.9648 30.1816C17.8121 30.341 17.759 30.3477 17.0684 30.3477C16.3777 30.3477 16.3246 30.3543 16.1719 30.5137C16.0125 30.6664 16.0059 30.6996 16.0059 31.7023V32.7316L15.8332 32.8645C15.6008 33.0504 15.375 33.0371 15.1758 32.8379C15.0164 32.6852 15.0098 32.652 15.0098 31.6492V30.6199L14.8371 30.4871C14.6844 30.3676 14.5648 30.3477 13.9738 30.3477C13.602 30.3477 13.2434 30.3277 13.1836 30.3078C13.0242 30.2414 12.8781 29.9094 12.9246 29.7168C12.9977 29.418 13.177 29.3516 13.9539 29.3516C14.5648 29.3516 14.6844 29.3316 14.8371 29.2121L15.0098 29.0793V26.6953C15.0098 24.5238 14.9965 24.3047 14.8902 24.1719C14.7973 24.059 14.618 24.0058 14.0137 23.8996C11.9418 23.5476 10.275 22.7242 8.8207 21.323C7.98398 20.5262 7.41953 19.7758 6.91484 18.7996C6.48984 17.9629 6.19766 17.1594 6.00508 16.2695C5.82578 15.466 5.82578 13.2347 5.99844 12.4179C6.27734 11.1164 6.73555 10.034 7.4793 8.91832C8.98008 6.66051 11.3641 5.15308 14.1133 4.7148C14.8105 4.60191 16.3379 4.62183 17.1016 4.748C18.702 5.01363 20.309 5.73746 21.6238 6.78004C21.9027 6.99918 22.0953 7.10543 22.2215 7.10543C22.3875 7.10543 22.7527 6.76676 24.6254 4.8941C26.591 2.92847 26.8301 2.66285 26.8301 2.47691C26.8301 2.1648 26.5777 1.99214 26.1195 1.99214C25.6879 1.99214 25.5484 1.92574 25.4422 1.66675C25.3758 1.50737 25.3758 1.44097 25.4621 1.27495C25.5152 1.1687 25.6148 1.06245 25.668 1.03589C25.7277 1.01597 26.4848 0.996044 27.3547 0.996044C28.8488 0.996044 28.9352 1.00269 29.0746 1.12886C29.2141 1.26167 29.2207 1.30151 29.2207 2.92183C29.2207 4.49566 29.2141 4.58863 29.0879 4.7148C28.9352 4.86754 28.6363 4.88746 28.457 4.75464C28.3641 4.68824 28.3176 4.53551 28.2844 4.17691C28.2379 3.76519 28.2047 3.65894 28.0586 3.53277C27.9656 3.45308 27.8195 3.38667 27.7398 3.38667C27.6402 3.38667 26.9164 4.07066 25.3559 5.62457C22.8789 8.10153 22.9254 8.02848 23.284 8.5066C23.5762 8.8984 23.8949 9.40973 24.1141 9.84137C24.393 10.3992 24.5457 10.5586 24.8047 10.5586C25.0504 10.5586 25.3027 10.3261 25.3027 10.107C25.3027 9.9277 25.0039 9.3234 24.5723 8.62613L24.2535 8.11481L25.8273 6.55426L27.3945 4.98707L27.5805 5.25269C27.7996 5.5648 28.3309 5.84371 28.716 5.84371C29.327 5.84371 29.8316 5.5316 30.0906 5.00035C30.2367 4.70152 30.25 4.58199 30.2699 3.24722C30.3098 1.02925 30.1836 0.571045 29.4266 0.179249L29.0613 -4.95911e-05H27.3281H25.5949L25.2297 0.179249ZM7.74492 4.63511C8.20977 4.87418 8.56836 5.34566 8.66133 5.83707C8.70117 6.04957 8.67461 6.08277 8.14336 6.58082C7.83789 6.86637 7.47266 7.25152 7.3332 7.43746C7.08086 7.76949 7.06758 7.77613 6.80859 7.72965C5.9918 7.59684 5.4207 6.92613 5.4207 6.10933C5.4207 5.62457 5.53359 5.34566 5.87227 4.99371C6.37031 4.46246 7.12734 4.31636 7.74492 4.63511Z" fill="black"/>
<path d="M14.8104 5.6513C10.8925 5.95013 7.61865 8.94506 6.94131 12.8431C6.81514 13.6068 6.81514 15.0677 6.94131 15.8248C7.14717 17.0001 7.57881 18.0959 7.86436 18.1689C8.1499 18.2353 8.36904 18.1423 8.46865 17.9099C8.54834 17.724 8.5417 17.6576 8.38896 17.2658C7.9374 16.1169 7.87764 15.7451 7.87764 14.3107C7.87764 13.1552 7.89756 12.9162 8.02373 12.4646C8.23623 11.6943 8.58818 10.8775 8.97998 10.2333C9.45811 9.46303 10.6534 8.26771 11.437 7.78295C14.8636 5.67123 19.2929 6.50795 21.7101 9.72865C22.155 10.3263 22.7327 11.4951 22.9386 12.2255C23.7022 14.915 22.9452 17.7705 20.953 19.756C17.8851 22.8306 13.0374 22.7841 9.96279 19.6498C9.31201 18.9857 9.13936 18.906 8.86709 19.1451C8.47529 19.4771 8.72764 19.9552 9.79014 20.865C10.9921 21.9076 12.3866 22.5849 13.9472 22.8904C14.7972 23.0564 16.371 23.0431 17.2476 22.8572C20.6675 22.1201 23.2972 19.5169 24.0276 16.1369C24.9772 11.7806 22.4007 7.36459 18.1308 6.01654C17.1147 5.69115 15.9526 5.56498 14.8104 5.6513Z" fill="black"/>
<path d="M16.8693 11.0103C16.7498 11.1032 16.71 11.2228 16.6834 11.5017L16.6568 11.8736L16.3979 11.9134C16.026 11.9732 15.4881 12.1857 15.0631 12.4446L14.6912 12.6704L14.4721 12.4446C13.8943 11.847 13.2104 12.5111 13.7682 13.1286L13.9939 13.3677L13.7682 13.7329C13.5158 14.1646 13.3033 14.6958 13.2436 15.0743L13.1971 15.34H12.885C12.46 15.34 12.2607 15.4993 12.2607 15.838C12.2607 16.1767 12.46 16.3361 12.885 16.3361H13.1971L13.2436 16.6017C13.3033 16.9802 13.5158 17.5115 13.7682 17.9431L13.9939 18.3083L13.7682 18.5474C13.5092 18.8329 13.4826 19.0919 13.6818 19.3111C13.8943 19.5368 14.2064 19.5036 14.4721 19.2314L14.6912 19.0056L15.0631 19.2314C15.4881 19.4904 16.026 19.7029 16.3979 19.7626L16.6568 19.8025L16.6834 20.1743C16.71 20.4533 16.7498 20.5728 16.8693 20.6658C17.0619 20.8251 17.2744 20.8185 17.4869 20.6525C17.6264 20.5396 17.6662 20.4466 17.6795 20.1743L17.6994 19.829L18.0779 19.7493C18.5162 19.6497 19.2201 19.3376 19.4592 19.1384L19.6252 19.0056L19.8709 19.2314C20.5018 19.8025 21.1725 19.165 20.5814 18.554C20.3623 18.3283 20.3623 18.3216 20.4752 18.1423C20.6943 17.8103 20.9799 17.1661 21.0596 16.8341C21.0994 16.6482 21.1459 16.4622 21.1592 16.4157C21.1725 16.3693 21.2986 16.3361 21.4713 16.3361C21.8631 16.3361 22.1154 16.1435 22.1154 15.838C22.1154 15.5325 21.8631 15.34 21.4713 15.34C21.2986 15.34 21.1725 15.3068 21.1592 15.2536C21.1459 15.2138 21.0994 15.0212 21.0596 14.8419C20.9799 14.5099 20.6943 13.8657 20.4752 13.5337C20.3623 13.3544 20.3623 13.3478 20.5814 13.122C21.1725 12.5111 20.5018 11.8736 19.8709 12.4446L19.6252 12.6704L19.4592 12.5376C19.1803 12.3118 18.6689 12.0794 18.1709 11.9532L17.6994 11.8337L17.6795 11.5017C17.6662 11.2294 17.6264 11.1364 17.4869 11.0236C17.2744 10.8575 17.0619 10.8509 16.8693 11.0103ZM17.8854 12.9161C18.4631 13.0689 18.9146 13.3212 19.3264 13.7396C19.9572 14.3638 20.2361 15.1474 20.1697 16.0904C20.0568 17.797 18.4166 19.0919 16.7166 18.8064C15.0764 18.5275 13.9342 16.9669 14.2064 15.3665C14.5119 13.6267 16.2252 12.4845 17.8854 12.9161Z" fill="black"/>
<path d="M16.3047 13.9057C15.7203 14.1713 15.4082 14.6627 15.4082 15.3068C15.4082 15.951 15.7203 16.4424 16.3047 16.708C17.3273 17.1861 18.4828 16.449 18.4828 15.3068C18.4828 14.1646 17.3273 13.4275 16.3047 13.9057ZM17.3074 14.9017C17.6926 15.2271 17.4402 15.8713 16.9289 15.8713C16.6434 15.8713 16.4043 15.6123 16.4043 15.3068C16.4043 14.8154 16.9355 14.5764 17.3074 14.9017Z" fill="black"/>
<path d="M25.1566 11.734C24.9707 11.9531 24.9641 12.0129 25.0836 12.6304C25.2563 13.5668 25.2363 15.2933 25.0438 16.2031C24.8445 17.1527 24.632 17.7637 24.2137 18.6269C22.9852 21.1437 20.7008 23.0031 17.9715 23.707C17.5664 23.8066 17.0285 23.9129 16.7828 23.9395C16.0988 24.0125 16.0457 24.0789 16.0191 24.9156C15.9992 25.5332 16.0059 25.6195 16.1387 25.7855C16.2449 25.9184 16.3379 25.9648 16.5106 25.9648C16.8625 25.9648 17.002 25.7789 17.002 25.3141V24.9355L17.7457 24.7828C19.9637 24.3312 22.1816 23.0098 23.6293 21.2832C25.5219 19.032 26.4383 16.2031 26.1793 13.434C26.0797 12.4047 25.9535 11.8203 25.7941 11.7074C25.6281 11.5812 25.2762 11.6012 25.1566 11.734Z" fill="black"/>
</g>
<defs>
<clipPath id="clip0_2387_1105">
<rect width="34" height="34" fill="white"/>
</clipPath>
</defs>
</svg>
