<svg width="35" height="34" viewBox="0 0 35 34" fill="none" xmlns="http://www.w3.org/2000/svg">
<path d="M17.4997 2.8335C9.69384 2.8335 3.33301 9.19433 3.33301 17.0002C3.33301 24.806 9.69384 31.1668 17.4997 31.1668C25.3055 31.1668 31.6663 24.806 31.6663 17.0002C31.6663 9.19433 25.3055 2.8335 17.4997 2.8335ZM24.2713 13.7418L16.2388 21.7743C16.0405 21.9727 15.7713 22.086 15.488 22.086C15.2047 22.086 14.9355 21.9727 14.7372 21.7743L10.728 17.7652C10.3172 17.3543 10.3172 16.6743 10.728 16.2635C11.1388 15.8527 11.8188 15.8527 12.2297 16.2635L15.488 19.5218L22.7697 12.2402C23.1805 11.8293 23.8605 11.8293 24.2713 12.2402C24.6822 12.651 24.6822 13.3168 24.2713 13.7418Z" fill="#C2B9FF"/>
</svg>
